<?xml version="1.0" encoding="UTF-8" standalone="no"?>
<!-- Created with Inkscape (http://www.inkscape.org/) -->

<svg
   xmlns:dc="http://purl.org/dc/elements/1.1/"
   xmlns:cc="http://creativecommons.org/ns#"
   xmlns:rdf="http://www.w3.org/1999/02/22-rdf-syntax-ns#"
   xmlns:svg="http://www.w3.org/2000/svg"
   xmlns="http://www.w3.org/2000/svg"
   xmlns:xlink="http://www.w3.org/1999/xlink"
   xmlns:sodipodi="http://sodipodi.sourceforge.net/DTD/sodipodi-0.dtd"
   xmlns:inkscape="http://www.inkscape.org/namespaces/inkscape"
   width="210mm"
   height="297mm"
   viewBox="0 0 210 297"
   version="1.1"
   id="svg1484"
   inkscape:version="0.92.4 (f8dce91, 2019-08-02)"
   sodipodi:docname="buttons.svg">
  <defs
     id="defs1478">
    <linearGradient
       x1="127.2"
       x2="127.2"
       y1="18.495"
       gradientUnits="userSpaceOnUse"
       y2="47.547"
       id="linearGradient2243"
       gradientTransform="matrix(0.18562108,0,0,0.19479948,-14.160146,75.306868)">
      <stop
         offset="0"
         stop-color="#fff"
         id="stop3259" />
      <stop
         offset="1"
         stop-opacity="0"
         stop-color="#fff"
         id="stop3261" />
    </linearGradient>
  </defs>
  <sodipodi:namedview
     id="base"
     pagecolor="#2c0000"
     bordercolor="#666666"
     borderopacity="1.0"
     inkscape:pageopacity="1"
     inkscape:pageshadow="2"
     inkscape:zoom="1.4"
     inkscape:cx="188.27168"
     inkscape:cy="431.73067"
     inkscape:document-units="mm"
     inkscape:current-layer="layer1"
     showgrid="false"
     inkscape:pagecheckerboard="false"
     inkscape:window-width="1861"
     inkscape:window-height="1025"
     inkscape:window-x="59"
     inkscape:window-y="27"
     inkscape:window-maximized="1" />
  <metadata
     id="metadata1481">
    <rdf:RDF>
      <cc:Work
         rdf:about="">
        <dc:format>image/svg+xml</dc:format>
        <dc:type
           rdf:resource="http://purl.org/dc/dcmitype/StillImage" />
        <dc:title></dc:title>
      </cc:Work>
    </rdf:RDF>
  </metadata>
  <g
     inkscape:groupmode="layer"
     id="layer2"
     inkscape:label="background"
     style="display:inline">
    <rect
       style="opacity:0.95;fill:#2c2c2c;fill-opacity:1;stroke:none;stroke-width:0.1840762;stroke-miterlimit:4;stroke-dasharray:none;stroke-opacity:1"
       id="rect2071"
       width="42.149258"
       height="15.690924"
       x="8.6014576"
       y="117.87959"
       rx="0.088152632"
       ry="0.061500769" />
  </g>
  <g
     inkscape:label="Layer 1"
     inkscape:groupmode="layer"
     id="layer1"
     style="display:inline;opacity:0.98999999">
    <g
       inkscape:label="Layer 1"
       id="layer1-6"
       transform="matrix(0.13862872,0,0,0.13862872,11.124115,122.19905)"
       style="fill:#ffffff">
      <path
         d="m 24.04,0.14285 c -1.376,0 -2.7263,0.12375 -4.0386,0.34741 l -0.64,6.7853 c -1.3572,0.37831 -2.6417,0.90728 -3.8432,1.585 l -5.244,-4.3317 c -2.2152,1.5679 -4.1541,3.4955 -5.7217,5.7101 l 4.3426,5.2437 c -0.67695,1.2001 -1.2177,2.4878 -1.5959,3.8432 l -6.7745,0.64053 c -0.22379,1.3127 -0.34741,2.6622 -0.34741,4.0386 0,1.3788 0.12285,2.7238 0.34741,4.0386 l 6.7745,0.64056 c 0.37825,1.3554 0.91896,2.6431 1.5959,3.8432 l -4.3317,5.2437 c 1.5648,2.2089 3.4908,4.1457 5.6997,5.7105 l 5.2545,-4.3426 c 1.2023,0.67835 2.485,1.2174 3.8432,1.5959 l 0.64053,6.7853 c 1.3123,0.22368 2.6626,0.33658 4.0386,0.33658 1.376,0 2.7155,-0.11289 4.0278,-0.33658 l 0.64053,-6.7853 c 1.3582,-0.37847 2.6409,-0.91755 3.8432,-1.5959 l 5.2545,4.3426 c 2.2088,-1.5649 4.1348,-3.5017 5.6997,-5.7105 l -4.3317,-5.2437 c 0.67695,-1.2001 1.2177,-2.4878 1.5959,-3.8432 l 6.7744,-0.64056 c 0.22456,-1.3148 0.34741,-2.6598 0.34741,-4.0386 0,-1.3765 -0.12361,-2.726 -0.34741,-4.0386 l -6.7744,-0.64053 c -0.37825,-1.3554 -0.91896,-2.6431 -1.5959,-3.8432 l 4.3426,-5.2437 c -1.568,-2.2146 -3.507,-4.1422 -5.722,-5.7101 l -5.2437,4.3317 c -1.2015,-0.67776 -2.486,-1.2067 -3.8432,-1.585 l -0.641,-6.7853 C 26.75436,0.2666 25.41486,0.14285 24.03886,0.14285 Z m 0,14.776 c 5.0178,0 9.076,4.0691 9.076,9.0869 0,5.0178 -4.0582,9.0869 -9.076,9.0869 -5.0178,0 -9.0869,-4.0691 -9.0869,-9.0869 0,-5.0178 4.0691,-9.0869 9.0869,-9.0869 z"
         inkscape:connector-curvature="0"
         style="fill:#ffffff"
         id="path2989" />
    </g>
    <text
       xml:space="preserve"
       style="font-style:normal;font-weight:normal;font-size:10.58333302px;line-height:1.25;font-family:sans-serif;letter-spacing:0px;word-spacing:0px;fill:#ffffff;fill-opacity:1;stroke:none;stroke-width:0.26458332"
       x="19.598852"
       y="127.76364"
       id="text1470"><tspan
         sodipodi:role="line"
         id="tspan1468"
         x="19.598852"
         y="127.76364"
         style="font-size:7.05555534px;fill:#ffffff;stroke-width:0.26458332">Settings</tspan></text>
    <rect
       style="display:inline;opacity:0.95;fill:#2c2c2c;fill-opacity:1;stroke:none;stroke-width:0.1840762;stroke-miterlimit:4;stroke-dasharray:none;stroke-opacity:1"
       id="rect2071-7"
       width="42.149258"
       height="15.690924"
       x="8.6014576"
       y="138.909"
       rx="0.088152632"
       ry="0.061500769" />
    <text
       xml:space="preserve"
       style="font-style:normal;font-weight:normal;font-size:10.58333302px;line-height:1.25;font-family:sans-serif;letter-spacing:0px;word-spacing:0px;fill:#ffffff;fill-opacity:1;stroke:none;stroke-width:0.26458332"
       x="19.598852"
       y="149.04503"
       id="text1470-6"><tspan
         sodipodi:role="line"
         id="tspan1468-2"
         x="19.598852"
         y="149.04503"
         style="font-size:7.05555534px;fill:#ffffff;stroke-width:0.26458332">System</tspan></text>
    <g
       style="fill:#eeeeec;fill-rule:evenodd"
       id="g3756"
       transform="matrix(0.15409598,0,0,0.15409598,-80.44253,25.723529)">
      <path
         inkscape:connector-curvature="0"
         id="path3758"
         xlink:href="#path22091"
         transform="matrix(0.93548,0,0,0.93548,3.1009,-64.472)"
         d="m 649.09,892 c -7.61,2.49 -13.15,9.61 -13.15,18.06 0,10.53 8.54,19.06 19.06,19.06 10.52,0 19.06,-8.53 19.06,-19.06 0,-8.46 -5.56,-15.57 -13.18,-18.06 v 6.81 c 4.06,2.14 6.9,6.34 6.9,11.25 0,7.05 -5.73,12.78 -12.78,12.78 -7.05,0 -12.78,-5.73 -12.78,-12.78 0,-4.9 2.81,-9.11 6.87,-11.25 z" />
      <path
         inkscape:connector-curvature="0"
         id="path3760"
         xlink:href="#path22093"
         transform="matrix(0.93548,0,0,0.93548,3.1009,-64.472)"
         d="m 651.78,887.91 v 22.62 h 6.44 v -22.62 z" />
    </g>
    <rect
       ry="0.061500769"
       rx="0.088152632"
       y="164.80037"
       x="8.6014576"
       height="15.690924"
       width="42.149258"
       id="rect2157"
       style="display:inline;opacity:0.95;fill:#2c2c2c;fill-opacity:1;stroke:none;stroke-width:0.1840762;stroke-miterlimit:4;stroke-dasharray:none;stroke-opacity:1" />
    <text
       id="text2161"
       y="174.9364"
       x="19.598852"
       style="font-style:normal;font-weight:normal;font-size:10.58333302px;line-height:1.25;font-family:sans-serif;letter-spacing:0px;word-spacing:0px;fill:#ffffff;fill-opacity:1;stroke:none;stroke-width:0.26458332"
       xml:space="preserve"><tspan
         style="font-size:7.05555534px;fill:#ffffff;stroke-width:0.26458332"
         y="174.9364"
         x="19.598852"
         id="tspan2159"
         sodipodi:role="line">Video</tspan></text>
    <g
       transform="matrix(0.15409598,0,0,0.15409598,-80.44253,51.614898)"
       id="g2167"
       style="fill:#eeeeec;fill-rule:evenodd">
      <path
         d="m 649.09,892 c -7.61,2.49 -13.15,9.61 -13.15,18.06 0,10.53 8.54,19.06 19.06,19.06 10.52,0 19.06,-8.53 19.06,-19.06 0,-8.46 -5.56,-15.57 -13.18,-18.06 v 6.81 c 4.06,2.14 6.9,6.34 6.9,11.25 0,7.05 -5.73,12.78 -12.78,12.78 -7.05,0 -12.78,-5.73 -12.78,-12.78 0,-4.9 2.81,-9.11 6.87,-11.25 z"
         transform="matrix(0.93548,0,0,0.93548,3.1009,-64.472)"
         xlink:href="#path22091"
         id="path2163"
         inkscape:connector-curvature="0" />
      <path
         d="m 651.78,887.91 v 22.62 h 6.44 v -22.62 z"
         transform="matrix(0.93548,0,0,0.93548,3.1009,-64.472)"
         xlink:href="#path22093"
         id="path2165"
         inkscape:connector-curvature="0" />
    </g>
    <rect
       style="display:inline;opacity:0.95;fill:#2c2c2c;fill-opacity:1;stroke:none;stroke-width:0.1840762;stroke-miterlimit:4;stroke-dasharray:none;stroke-opacity:1"
       id="rect2169"
       width="42.149258"
       height="15.690924"
       x="8.6014576"
       y="185.21109"
       rx="0.088152632"
       ry="0.061500769" />
    <text
       xml:space="preserve"
       style="font-style:normal;font-weight:normal;font-size:10.58333302px;line-height:1.25;font-family:sans-serif;letter-spacing:0px;word-spacing:0px;fill:#ffffff;fill-opacity:1;stroke:none;stroke-width:0.26458332"
       x="19.598852"
       y="195.34712"
       id="text2173"><tspan
         sodipodi:role="line"
         id="tspan2171"
         x="19.598852"
         y="195.34712"
         style="font-size:7.05555534px;fill:#ffffff;stroke-width:0.26458332">Music</tspan></text>
    <g
       style="fill:#eeeeec;fill-rule:evenodd"
       id="g2179"
       transform="matrix(0.15409598,0,0,0.15409598,-80.44253,72.025612)">
      <path
         inkscape:connector-curvature="0"
         id="path2175"
         xlink:href="#path22091"
         transform="matrix(0.93548,0,0,0.93548,3.1009,-64.472)"
         d="m 649.09,892 c -7.61,2.49 -13.15,9.61 -13.15,18.06 0,10.53 8.54,19.06 19.06,19.06 10.52,0 19.06,-8.53 19.06,-19.06 0,-8.46 -5.56,-15.57 -13.18,-18.06 v 6.81 c 4.06,2.14 6.9,6.34 6.9,11.25 0,7.05 -5.73,12.78 -12.78,12.78 -7.05,0 -12.78,-5.73 -12.78,-12.78 0,-4.9 2.81,-9.11 6.87,-11.25 z" />
      <path
         inkscape:connector-curvature="0"
         id="path2177"
         xlink:href="#path22093"
         transform="matrix(0.93548,0,0,0.93548,3.1009,-64.472)"
         d="m 651.78,887.91 v 22.62 h 6.44 v -22.62 z" />
    </g>
    <rect
       ry="0.061500769"
       rx="0.088152632"
       y="208.45662"
       x="8.6014576"
       height="15.690924"
       width="42.149258"
       id="rect2181"
       style="display:inline;opacity:0.95;fill:#2c2c2c;fill-opacity:1;stroke:none;stroke-width:0.1840762;stroke-miterlimit:4;stroke-dasharray:none;stroke-opacity:1" />
    <text
       id="text2185"
       y="218.59265"
       x="19.598852"
       style="font-style:normal;font-weight:normal;font-size:10.58333302px;line-height:1.25;font-family:sans-serif;letter-spacing:0px;word-spacing:0px;fill:#ffffff;fill-opacity:1;stroke:none;stroke-width:0.26458332"
       xml:space="preserve"><tspan
         style="font-size:7.05555534px;fill:#ffffff;stroke-width:0.26458332"
         y="218.59265"
         x="19.598852"
         id="tspan2183"
         sodipodi:role="line">Playlist</tspan></text>
    <g
       transform="matrix(0.15409598,0,0,0.15409598,-80.44253,95.271148)"
       id="g2191"
       style="fill:#eeeeec;fill-rule:evenodd">
      <path
         d="m 649.09,892 c -7.61,2.49 -13.15,9.61 -13.15,18.06 0,10.53 8.54,19.06 19.06,19.06 10.52,0 19.06,-8.53 19.06,-19.06 0,-8.46 -5.56,-15.57 -13.18,-18.06 v 6.81 c 4.06,2.14 6.9,6.34 6.9,11.25 0,7.05 -5.73,12.78 -12.78,12.78 -7.05,0 -12.78,-5.73 -12.78,-12.78 0,-4.9 2.81,-9.11 6.87,-11.25 z"
         transform="matrix(0.93548,0,0,0.93548,3.1009,-64.472)"
         xlink:href="#path22091"
         id="path2187"
         inkscape:connector-curvature="0" />
      <path
         d="m 651.78,887.91 v 22.62 h 6.44 v -22.62 z"
         transform="matrix(0.93548,0,0,0.93548,3.1009,-64.472)"
         xlink:href="#path22093"
         id="path2189"
         inkscape:connector-curvature="0" />
    </g>
  </g>
</svg>
